<svg viewBox="0 0 3827 1436" xmlns="http://www.w3.org/2000/svg">
<path d="M603.431 97.666C611.082 98.6037 618.712 99.7515 626.386 100.434C661.036 103.487 695.402 108.348 729.062 117.215C818.22 140.681 897.498 182.435 964.458 246.2C1031.32 309.867 1075.48 386.482 1093.39 477.433C1101.76 520.175 1104.11 563.88 1100.35 607.272C1096.14 657.459 1085.52 706.055 1065.59 752.393C1039.84 812.242 1003.6 864.649 954.263 907.678C941.96 918.398 934.219 931.916 931.721 948.083C928.757 967.257 923.469 985.629 914.151 1002.73C906.17 1017.41 893.942 1026.6 877.566 1030.05C874.132 1030.69 870.647 1031.03 867.153 1031.05C860.657 1031.21 854.153 1031.01 847.649 1031.13C838.052 1031.18 828.784 1034.64 821.498 1040.89C812.489 1048.46 804.668 1057.34 798.295 1067.23C789.578 1080.89 786.585 1095.92 788.543 1111.72C790.555 1127.35 790.882 1143.14 789.518 1158.83C788.603 1168.73 784.529 1176.36 775.902 1181.64C772.134 1184.1 768.572 1186.86 765.25 1189.89C761.177 1193.41 760.081 1197.76 762.804 1202.65C765.858 1208.14 766.375 1214.03 765.565 1220.1C764.628 1227.33 765.861 1234.67 769.106 1241.2C778.858 1261.85 779.863 1283.03 772.227 1304.57C766.458 1320.85 764.357 1337.44 766.645 1354.71C769.826 1378.65 762.94 1399.68 746.886 1417.72C740.72 1424.65 732.927 1429.94 724.208 1433.11C721.958 1433.96 719.707 1435.01 717.457 1435.97H697.952C697.352 1435.57 696.797 1434.88 696.152 1434.79C675.852 1431.88 655.53 1429.54 634.923 1430.73C619.709 1431.59 604.458 1432.15 589.23 1432.05C571.901 1431.94 555.075 1428 538.218 1424.29C520.964 1420.54 507.461 1411.44 497.026 1397.59C486.894 1384.24 475.689 1371.74 463.524 1360.2C453.726 1350.8 443.352 1342.2 430.231 1337.74C420.411 1334.4 412.902 1328.23 406.833 1319.86C396.239 1305.17 381.965 1293.53 365.446 1286.1C350.675 1279.35 335.725 1273.05 320.804 1266.67C302.402 1258.8 291.614 1245.11 289.792 1225.14C288.726 1213.47 288.726 1201.69 288.449 1189.95C288.194 1178.9 284.51 1169.31 276.363 1161.85C269.552 1155.62 262.763 1149.1 255.059 1144.15C203.049 1110.55 159.037 1068.39 120.665 1020.07C87.0352 977.692 59.0538 931.901 40.187 881.145C18.8221 823.652 7.17961 763.916 3.1812 702.694C2.54356 693.039 1.27569 683.43 0.292969 673.797V657.294C1.23818 649.417 2.25092 641.54 3.10611 633.671C5.35662 613.071 6.54189 592.299 9.85765 571.879C22.1486 495.394 50.68 422.428 93.5318 357.893C151.16 270.693 225.989 202.938 320.308 157.2C394.62 121.191 472.938 101.342 555.585 98.9638C559.035 98.8663 562.464 98.1161 565.9 97.666H603.431ZM830.185 379.528V379.393H863.192C868.189 379.393 873.2 379.235 878.196 379.453C885.607 379.775 888.803 384.119 887.318 391.456C887.078 392.678 886.785 393.894 886.47 395.101C858.384 503.156 830.325 611.218 802.293 719.288C793.644 752.903 785.962 786.766 778.168 820.561C774.738 835.225 774.38 850.44 777.118 865.249C779.053 875.691 785.55 881.31 796.022 882.33C813.523 884.04 830.365 881.85 846.554 874.618C860.807 868.257 874.025 860.328 885.803 850.05C900.573 837.288 913.949 822.994 925.704 807.41C965.291 754.448 984.45 693.722 991.854 628.96C996.13 591.541 993.932 554.1 987.728 516.892C977.323 454.402 951.72 398.65 913.461 348.561C895.037 324.488 871.317 305.899 847.499 287.707C818.242 265.397 785.235 249.816 751.004 236.883C709.557 221.242 666.587 212.735 622.425 209.712C572.531 206.298 522.99 208.459 473.891 218.241C437.635 225.473 403.638 239.403 370.232 254.699C343.226 267.04 319.333 284.324 296.205 302.755C263.717 328.728 235.411 359.537 212.276 394.104C189.891 427.351 172.472 463.367 158.887 501.191C151.002 523.148 147.087 546.096 141.393 568.593C139.161 577.821 137.633 587.205 136.824 596.665C134.979 616.057 133.246 635.479 132.323 654.931C130.818 689.93 133.171 724.99 139.337 759.475C148.152 809.774 165.481 857.297 190.446 901.917C194.835 909.756 200.101 917.108 204.52 924.925C213.533 941.106 224.534 956.098 237.265 969.552C253.153 986.176 269.454 1002.42 285.043 1019.33C296.893 1032.2 309.719 1044.15 323.407 1055.05C340.03 1068.28 356.497 1081.71 372.971 1095.12C375.665 1097.35 378.225 1099.74 380.637 1102.28C395.191 1117.28 406.818 1134.39 416.113 1153.11C420.336 1161.61 424.5 1170.17 429.293 1178.35C434.244 1186.82 439.046 1187.44 445.932 1180.31C450.988 1175.06 455.924 1174.07 462.691 1176.56C477.694 1182.12 479.195 1183.73 479.075 1199.86C478.964 1206.14 480.561 1212.33 483.696 1217.78C487.124 1223.71 493.17 1224.05 496.719 1218.2C498.152 1215.83 498.534 1212.55 498.602 1209.66C498.819 1200.97 502.9 1195.02 510.604 1191.3C514.176 1189.46 518.116 1188.46 522.13 1188.36C526.144 1188.26 530.129 1189.07 533.785 1190.73C536.98 1192.11 540.184 1193.85 543.537 1194.42C553.372 1196.05 563.259 1197.6 573.184 1198.37C580.213 1198.91 586.349 1200.72 591.713 1205.32C595.981 1208.98 600.715 1210.04 606.341 1208.32C613.888 1205.99 619.019 1209.37 620.49 1217.11C620.818 1219.34 620.946 1221.6 620.872 1223.86C620.932 1231.86 620.662 1239.87 621.022 1247.87C621.442 1257.27 628.179 1262.87 637.571 1261.96C645.133 1261.21 651.006 1257.46 653.94 1250.49C656.34 1244.81 657.69 1238.65 659.191 1232.62C659.993 1229.25 659.686 1225.62 660.429 1222.22C662.146 1214.34 669.828 1209.13 677.833 1210.06C684.344 1210.81 689.835 1215.47 689.22 1224.92C688.838 1230.92 689.055 1236.92 689.22 1242.92C689.333 1248.1 690.931 1250.31 694.531 1250.58C698.515 1250.88 700.36 1248.51 701.283 1244.96C702.596 1239.88 704.284 1234.9 705.341 1229.77C708.41 1214.48 718.379 1208.29 733.195 1213.07C738.821 1214.88 743.473 1214.04 747.561 1209.83C748.956 1208.4 750.457 1207.06 751.822 1205.6C755.355 1201.85 755.535 1199.82 752.512 1195.8C751.321 1194.19 749.915 1192.75 748.334 1191.53C741.65 1186.49 738.581 1179.77 738.319 1171.5C738.153 1166.5 737.735 1161.51 737.066 1156.56C735.491 1144.96 725.476 1140.34 715.686 1146.63C713.166 1148.24 710.93 1150.3 708.425 1151.94C696.842 1159.53 690.113 1169.51 692.341 1184C692.367 1184.25 692.367 1184.5 692.341 1184.75C691.733 1194.3 685.499 1200.72 675.95 1200.61C671.606 1200.55 666.753 1199.79 663.062 1197.69C655.312 1193.31 647.496 1191.83 638.659 1192.5C625.05 1193.54 612.088 1191.59 602.74 1179.92C602.392 1179.56 602.002 1179.24 601.578 1178.98C596.949 1175.53 594.781 1175.5 590.213 1178.91C588.21 1180.41 586.334 1182.08 584.256 1183.46C579.755 1186.46 576.612 1186.32 572.809 1182.71C570.289 1180.28 568.027 1177.59 566.057 1174.7C562.636 1169.69 558.353 1166.32 552.194 1165.47C547.168 1164.76 543.477 1161.93 540.896 1157.61C539.869 1155.89 538.818 1154.18 537.896 1152.43C531.797 1141.18 529.156 1140.74 520.867 1150.07C516.366 1155.1 510.972 1157.8 504.288 1156.99C499.848 1156.4 495.468 1155.43 491.198 1154.08C486.329 1152.58 483.193 1149.05 481.858 1144.13C481.108 1141.25 480.853 1138.23 480.042 1135.36C478.43 1129.6 473.103 1127.93 468.445 1131.69C466.112 1133.58 463.981 1135.7 461.791 1137.75C457.605 1141.68 452.909 1143.31 447.418 1140.75C441.746 1138.12 439.278 1133.46 439.796 1127.39C440.396 1120.43 441.296 1113.5 442.136 1106.55C443.776 1091.06 450.098 1076.44 460.26 1064.64C462.749 1061.82 464.632 1058.51 465.794 1054.94C466.955 1051.36 467.37 1047.58 467.012 1043.83C466.457 1036.33 466.037 1028.88 465.437 1021.4C464.822 1013.76 459.578 1007.9 451.934 1007.95C440.291 1007.99 429.248 1005.06 417.936 1003.15C397.906 999.754 379.722 991.818 361.568 983.416C345.852 976.18 331.609 966.101 319.558 953.686C311.704 945.63 303.64 937.783 295.71 929.793C283.123 917.108 272.275 903.05 264.278 887.071C246.799 852.158 234.879 815.715 232.291 776.293C230.318 746.189 230.843 716.145 235.179 686.528C240.618 649.439 249.432 612.936 266.356 578.976C267.145 577.412 267.817 575.793 268.367 574.13C274.676 554.408 284.87 536.621 296.446 519.682C308.133 502.548 320.901 486.157 332.836 469.196C346.812 449.316 364.051 432.79 383.735 418.769C447.95 373.009 518.721 350.339 598.104 358.703C641.847 363.317 678.875 381.868 709.55 413.241C720.052 423.983 730.089 435.123 737.306 448.461C738.964 451.522 741.229 453.712 744.995 453.367C749.114 453.022 750.997 450.329 752.017 446.616C752.872 443.487 753.922 440.412 754.845 437.299C759.294 422.205 763.555 407.052 768.236 392.033C771.326 382.108 775.032 379.595 785.115 379.55C800.185 379.475 815.181 379.528 830.185 379.528ZM375.274 730.646C373.923 748.7 376.021 766.847 381.455 784.118C394.568 826.3 420.419 856.134 464.341 868.009C480.23 872.315 496.419 872.39 512.69 871.993C529.494 871.58 545.105 867.162 560.138 859.757C582.643 848.662 601.593 832.984 618.764 814.935C671.591 759.422 698.132 692.949 700.638 616.754C701.5 590.423 693.684 566.178 680.638 543.238C665.44 516.509 642.379 499.653 614.946 487.725C611.478 486.303 607.862 485.274 604.166 484.657C585.014 481.078 565.907 481.656 546.838 485.505C519.749 490.988 496.299 504.176 474.979 521.108C442.024 547.274 418.603 580.851 400.929 618.75C384.471 654.068 373.556 690.616 375.274 730.646ZM745.858 932.914H746.113C746.113 920.911 746.263 908.909 746.076 896.906C745.836 881.31 733.323 869.607 717.749 870.417C706.227 871.025 696.594 875.894 688.838 884.423C666.527 908.954 647.308 935.682 632.185 965.224C629.189 970.979 626.938 977.092 625.486 983.416C622.23 998.292 623.88 1013.33 626.273 1028.13C627.706 1037.02 637.878 1042.05 646.82 1039.33C650.197 1038.39 653.45 1037.05 656.513 1035.35C668.305 1028.39 680.991 1027.43 694.209 1028.86C699.333 1029.42 703.961 1030.89 708.057 1033.98C711.253 1036.38 714.381 1038.92 717.809 1040.92C731.612 1048.94 747.208 1040.08 747.719 1024.13C747.929 1017.65 748.656 1011.17 748.664 1004.69C748.664 997.721 748.191 990.745 747.764 983.791C747.208 974.789 746.263 965.869 745.911 956.897C745.581 948.915 745.828 940.911 745.828 932.914H745.858Z" fill="white"/>
<path d="M1727.72 883.455C1727.43 977.748 1706.42 1060.7 1664.44 1141.51C1649.88 1169.54 1631 1196.38 1604.18 1220.79C1584.06 1239.23 1559.52 1255.6 1531.43 1269.34C1495.03 1287.13 1453.89 1297.11 1408.02 1299.28C1356.99 1301.69 1307.09 1298.22 1258.92 1286.94C1216.88 1277.09 1183.94 1260.16 1159.34 1236.7C1134.74 1213.24 1120.19 1187.44 1111.67 1160.17C1101.58 1127.92 1100.35 1095.31 1103.87 1062.61C1108.38 1020.37 1120.66 978.799 1133.02 937.26C1155.67 861.15 1182.73 785.611 1209.3 710.024C1221.9 674.25 1233.92 638.41 1246.67 602.685C1250.52 591.911 1255.93 581.355 1260.8 570.733C1261.77 568.644 1263.14 566.633 1264.86 564.745C1278.15 550.103 1291.51 535.491 1304.94 520.908C1310.24 515.175 1317.82 510.847 1326.71 507.172C1351.19 497.029 1377.37 489.593 1406.77 487.829C1481.04 483.364 1544.85 496.741 1595.08 532.471C1607.62 541.389 1616.87 551.64 1624.62 562.414C1638.67 581.981 1648.58 602.451 1658.13 622.998C1681.25 672.413 1699.42 722.689 1712.53 773.53C1722.58 813.001 1728.73 852.684 1727.72 883.455ZM1624.86 898.965C1624.81 863.192 1620.48 827.472 1611.92 792.106C1599.62 741.311 1581.41 691.323 1558.61 641.993C1550.57 624.571 1542.44 607.15 1530.57 590.583C1526.81 585.335 1522.53 579.956 1516.64 575.633C1488.37 554.901 1451.62 548.662 1410.29 553.987C1388.48 556.796 1371.05 564.451 1364.77 579.275C1359.13 592.581 1352.26 605.701 1347.43 619.111C1335.62 651.634 1324.79 684.294 1313.42 716.872C1287.75 790.369 1261.16 863.725 1238.79 937.652C1227.25 975.761 1215.8 1013.91 1209.52 1052.56C1204.67 1082.43 1204.32 1112.33 1212.18 1142.07C1217.45 1162.07 1227.03 1181.18 1243.99 1198.65C1257.99 1213.08 1277.8 1222.67 1303.53 1227.6C1335.07 1233.75 1368.22 1235.95 1401.11 1234.08C1424.96 1232.72 1446.58 1227.8 1465.73 1218.56C1479.51 1211.95 1492.13 1204.43 1503.37 1196.14C1527.65 1178.18 1544.23 1157.49 1557.16 1135.64C1589.52 1080.92 1608.02 1024.17 1617.52 966.25C1621.16 943.902 1622.47 921.395 1624.86 898.965Z" fill="white"/>
<path d="M3716.13 675.373C3712.18 676.24 3709.42 676.812 3706.71 677.566C3681.01 684.692 3656.14 693.811 3633.17 707.647C3625.75 712.12 3618.15 716.315 3610.54 720.424C3606.83 722.436 3605.61 725.21 3605.33 729.449C3602.58 766.022 3599.53 802.587 3596.54 839.143C3593.87 871.962 3590.48 904.748 3588.56 937.611C3584.55 1005.96 3581.36 1074.36 3577.64 1142.73C3577.34 1149.08 3576.24 1155.36 3574.36 1161.43C3566.71 1185.24 3543.47 1199.32 3518.01 1196.1C3494.73 1193.16 3475.91 1173.27 3474.03 1149.37C3473.72 1144.46 3473.69 1139.54 3473.95 1134.63C3476.75 1057.83 3480.39 981.058 3486.57 904.444C3490.41 856.94 3495.31 809.522 3499.38 762.034C3500.72 746.24 3502.77 730.385 3500.35 714.478C3500.17 713.342 3500.11 712.18 3499.91 711.01C3498.31 701.752 3496.06 699.992 3487.02 703.087C3476.95 706.554 3466.85 710.265 3457.4 715.128C3445.35 721.326 3433.84 728.59 3422.3 735.725C3405.35 746.205 3388.65 757.102 3371.67 767.539C3367.08 770.356 3364.73 773.338 3364.73 779.146C3364.38 821.042 3363.5 862.93 3363 904.843C3361.95 992.969 3360.99 1081.1 3360.13 1169.24C3359.98 1184.89 3356.4 1199.08 3344.99 1210.35C3330.08 1225.08 3312.11 1229.57 3292.33 1223.28C3272.55 1216.99 3260.67 1202.7 3257.18 1182.07C3256.31 1176.36 3255.96 1170.58 3256.11 1164.8C3257.13 1067.13 3258.21 969.465 3259.36 871.798C3260.39 786.844 3261.55 701.905 3262.82 616.98C3262.86 610.629 3263.7 604.308 3265.33 598.169C3272.17 573.585 3295.12 558.588 3321 561.267C3345.12 563.772 3364.45 583.623 3366.37 608.52C3367.11 618.003 3366.7 627.591 3366.8 637.127C3366.8 639.909 3366.8 642.692 3366.8 646.948C3370.74 644.729 3373.46 643.316 3376.06 641.747C3400.96 626.403 3426.59 612.672 3454.71 603.925C3488.13 593.523 3520.25 595.343 3550.83 613.192C3556.52 616.521 3561.75 620.656 3567.88 624.895C3574.16 621.428 3580.74 617.891 3587.21 614.18C3621.61 594.468 3658.63 581.716 3697.09 572.883C3713.56 569.086 3730.35 568.496 3746.93 572.64C3776.15 579.948 3796.22 598.161 3808.48 625.346C3816.63 643.481 3820.43 662.786 3822.24 682.377C3824.17 703.07 3825.71 723.857 3826.07 744.628C3827.29 812.244 3826.32 879.837 3823.18 947.406C3821.45 985.219 3820.53 1023.07 3818.9 1060.88C3817.45 1094.69 3815.85 1128.42 3813.7 1162.16C3811.22 1201.43 3771.76 1224.43 3737.85 1206.5C3719.33 1196.69 3710.29 1180.53 3710.11 1159.83C3710.01 1147.14 3711.34 1134.44 3711.85 1121.75C3714.01 1071.23 3716.43 1020.73 3718.14 970.197C3720.01 914.717 3721.8 859.297 3722.47 803.835C3722.86 770.894 3721.24 737.996 3720 705.089C3719.67 695.424 3717.58 685.828 3716.13 675.373Z" fill="white"/>
<path d="M2435.72 552.5L2420.2 553.84C2387.66 556.612 2355.18 559.671 2322.59 561.972C2302.03 563.423 2285 555.3 2273.78 536.447C2263.22 518.675 2262.58 499.665 2271.74 481.043C2280.77 462.67 2295.87 453.318 2315.08 451.608C2337.82 449.584 2360.59 448.059 2383.34 446.063C2400.29 444.575 2417.21 442.644 2435.11 440.814C2435.26 436.563 2435.54 433.014 2435.51 429.474C2434.97 377.434 2434.32 325.385 2433.84 273.29C2433.63 249.89 2433.35 226.471 2433.76 203.053C2434.33 170.559 2441.37 139.655 2455.94 110.932C2467.46 88.2249 2483.68 70.2683 2504.1 56.3596C2532.65 36.8966 2563.78 24.0691 2596.54 15.6222C2629.15 7.22151 2662.11 -0.615403 2695.79 1.0481C2754.98 3.97772 2805.74 27.7011 2844.85 76.2107C2871.49 109.231 2887.01 147.935 2893.61 190.808C2899.48 229.031 2900.29 267.403 2896.95 305.913C2894.56 333.638 2877.83 353.618 2853.92 357.666C2846.84 358.93 2839.6 358.574 2832.66 356.622C2825.72 354.669 2819.25 351.165 2813.68 346.343C2808.12 341.52 2803.57 335.489 2800.36 328.651C2797.14 321.812 2795.33 314.323 2795.04 306.68C2794.76 299.638 2795.38 292.531 2795.86 285.48C2797.91 254.871 2796.51 224.531 2789.79 194.624C2785.24 174.422 2776.41 156.262 2762.56 141.817C2741.14 119.49 2714.78 108.215 2684.78 110.183C2651.83 112.303 2619.38 119.853 2588.59 132.567C2580.79 135.783 2573.41 140.08 2565.91 144.026C2547.07 153.943 2538.93 171.28 2537.81 192.554C2536.94 208.829 2537.29 225.196 2537.44 241.535C2537.95 299.739 2538.54 357.944 2539.22 416.148C2539.22 419.456 2539.57 422.765 2539.8 426.933C2549.86 425.556 2559.18 423.865 2568.58 423.088C2583.52 421.868 2598.55 420.14 2613.48 420.658C2636.31 421.443 2654.42 436.637 2661.15 458.401C2672.01 493.454 2648.65 529.95 2613.71 530.754C2590.48 531.281 2567.77 535.375 2544.85 538.388C2543.47 538.563 2542.11 538.942 2539.77 539.423V551.381C2539.77 722.935 2540.1 894.479 2539.77 1066.03C2539.66 1125.18 2538.04 1184.33 2537.11 1243.4C2536.86 1259.18 2532.23 1273.15 2521.29 1284.06C2505.78 1299.53 2487.54 1304.06 2467.59 1296.26C2447.63 1288.46 2436.49 1272.57 2433.95 1250.05C2433.58 1246.37 2433.44 1242.66 2433.56 1238.96C2438.15 1013.8 2435.15 788.652 2435.72 563.506C2435.73 560.207 2435.72 556.908 2435.72 552.5Z" fill="white"/>
<path d="M2775.08 929.984C2776.28 938.505 2777.04 947.122 2778.8 955.522C2782.15 971.62 2785.68 987.7 2789.86 1003.6C2800.07 1042.55 2822.97 1072.47 2856.46 1094.34C2882.42 1111.4 2912.21 1121.75 2943.15 1124.45C2971.14 1127 2996.27 1119.33 3019.36 1103.9C3034.34 1093.9 3047.39 1081.65 3059.97 1068.87C3071.72 1056.94 3083.23 1044.74 3095.16 1032.99C3108.11 1020.25 3123.65 1014.59 3141.84 1017.85C3150.2 1019.3 3158.07 1022.8 3164.75 1028.04C3171.43 1033.27 3176.72 1040.08 3180.13 1047.85C3183.54 1055.63 3184.97 1064.12 3184.3 1072.58C3183.63 1081.04 3180.87 1089.21 3176.28 1096.35C3174.13 1099.77 3171.62 1102.97 3168.81 1105.88C3150.38 1124.61 3132.21 1143.64 3113.18 1161.75C3092.25 1181.78 3068.06 1198.09 3041.65 1209.98C2998.25 1229.5 2953.09 1233.26 2906.85 1224.37C2850.51 1213.55 2800.96 1188.9 2759.13 1149.18C2722.4 1114.3 2700.35 1071.33 2687.12 1022.94C2671.92 967.346 2666.82 911.112 2673.46 853.898C2678.02 814.724 2686.76 776.374 2701.9 739.93C2732.32 666.654 2786.48 620.302 2863.43 600.659C2889.08 594.122 2914.99 590.256 2941.45 593.568C2979.71 598.289 3016.53 611.054 3049.51 631.025C3068.19 642.295 3082.45 658.176 3092.73 677.412C3104.96 700.34 3112.87 724.656 3114.76 750.714C3116.11 768.371 3113.11 786.088 3106.03 802.319C3103.5 808.447 3100.4 814.328 3096.79 819.891C3051.13 887.29 2989.41 929.377 2907.39 938.86C2873.78 942.764 2839.84 942.811 2806.23 938.999C2795.75 937.855 2785.98 934.682 2775.08 929.984ZM2780.06 841.918C2791.8 836.717 2801.99 834.506 2813 835.2C2832.28 836.396 2851.61 837.384 2870.91 837.436C2886.52 837.491 2902.08 835.625 2917.23 831.88C2949.91 823.766 2975.86 805.18 2997.27 779.98C3013.18 761.264 3014.93 760.675 3004.49 733.308C3001.23 724.76 2995.66 718.311 2987.15 715.008C2973.19 709.59 2959.22 704.12 2944.98 699.551C2930.97 695.052 2916.37 695.044 2902.16 698.459C2890.37 701.196 2878.75 704.635 2867.37 708.758C2843.63 717.574 2825.2 733.082 2811.22 754.329C2798.6 773.504 2791.86 794.829 2786.12 816.657C2784.06 824.416 2782.36 832.252 2780.06 841.935V841.918Z" fill="white"/>
<path d="M1822.31 709.252C1822.31 693.952 1822.1 678.643 1822.36 663.308C1823.5 595.692 1824.09 528.119 1826.21 460.563C1828.93 374.83 1832.88 289.131 1836.54 203.423C1837.68 176.671 1839.61 149.841 1841.16 123.038C1842.75 95.8439 1863.53 74.6315 1889.8 73.3746C1917.63 72.0396 1940.36 90.6427 1944.01 118.591C1945.19 128.336 1945.38 138.176 1944.59 147.96C1938.98 224.598 1935.08 301.325 1932.91 378.141C1931.01 444.544 1929.31 510.955 1927.8 577.375C1926.49 633.721 1926.02 690.068 1924.15 746.311C1922.33 801.444 1919.16 856.534 1916.64 911.641C1914.58 956.655 1912.56 1001.67 1910.57 1046.68C1908.13 1102.38 1905.83 1158.08 1903.25 1213.76C1903 1220.13 1901.93 1226.43 1900.06 1232.52C1896.42 1243.76 1889.01 1253.39 1879.09 1259.8C1869.17 1266.21 1857.34 1269.01 1845.6 1267.72C1820.46 1264.76 1801.34 1244.98 1799.65 1220.04C1799.38 1215.13 1799.38 1210.21 1799.65 1205.3C1802.41 1141.82 1805.21 1078.34 1808.04 1014.86C1811.36 941.565 1814.89 868.288 1818.19 795.003C1819.47 766.396 1820.4 737.85 1821.48 709.278L1822.31 709.252Z" fill="white"/>
<path d="M2186.36 841.563C2184.52 915.507 2182.7 989.451 2180.88 1063.4C2179.72 1109.32 2178.61 1155.25 2177.55 1201.17C2177.06 1222.75 2168.94 1240.06 2149.36 1250.38C2115.4 1268.27 2075.11 1244.65 2073.78 1205.89C2073.16 1188.01 2073.78 1170.06 2074.28 1152.15C2075.8 1094.07 2078.02 1036.05 2079.01 977.991C2081.08 855.762 2082.48 733.576 2084.28 611.373C2084.89 569.186 2085.69 526.998 2086.68 484.81C2086.76 479.036 2087.53 473.292 2089 467.707C2095.76 443.053 2118.37 428.047 2144.43 430.483C2168.5 432.737 2188.16 452.796 2189.95 477.493C2190.62 486.691 2190.44 495.975 2190.31 505.233C2188.75 617.337 2187.15 729.447 2185.49 841.563H2186.36Z" fill="white"/>
<path d="M2197.42 205.702C2193.68 234.205 2180.78 259.449 2153.8 274.662C2133.41 286.174 2111.93 284.787 2092.73 270.293C2075.03 256.891 2067.92 231.596 2074.42 208.424C2078.53 193.731 2098.65 165.575 2111.39 157.279C2129.4 145.602 2148.45 142.724 2167.91 153.127C2187.96 163.824 2195.81 182.045 2197.42 205.702Z" fill="white"/>
</svg>
