<svg width="256" height="256" viewBox="0 0 256 256" fill="none" xmlns="http://www.w3.org/2000/svg">
<path d="M137.368 8C138.741 8.16816 140.109 8.37399 141.485 8.49641C147.699 9.04395 153.862 9.9157 159.898 11.5058C175.887 15.7139 190.104 23.2018 202.112 34.6368C214.103 46.0543 222.022 59.7937 225.233 76.104C226.735 83.7691 227.155 91.6067 226.482 99.3884C225.726 108.388 223.822 117.103 220.248 125.413C215.629 136.146 209.132 145.544 200.284 153.261C198.077 155.183 196.689 157.607 196.241 160.506C195.71 163.945 194.761 167.239 193.09 170.305C191.659 172.939 189.466 174.586 186.529 175.205C185.914 175.321 185.289 175.381 184.662 175.385C183.497 175.413 182.331 175.377 181.164 175.4C179.443 175.409 177.781 176.029 176.475 177.149C174.859 178.507 173.457 180.099 172.314 181.874C170.751 184.322 170.214 187.018 170.565 189.852C170.926 192.654 170.984 195.486 170.74 198.3C170.576 200.075 169.845 201.444 168.298 202.391C167.622 202.831 166.983 203.326 166.388 203.87C165.657 204.501 165.461 205.282 165.949 206.157C166.497 207.144 166.59 208.2 166.444 209.288C166.276 210.584 166.497 211.901 167.079 213.071C168.828 216.774 169.008 220.572 167.639 224.436C166.604 227.355 166.228 230.331 166.638 233.426C167.208 237.721 165.973 241.492 163.094 244.727C161.989 245.97 160.591 246.919 159.028 247.487C158.624 247.639 158.22 247.828 157.817 248H154.319C154.212 247.927 154.112 247.805 153.996 247.789C150.356 247.267 146.712 246.847 143.016 247.06C140.288 247.214 137.553 247.314 134.822 247.296C131.714 247.276 128.697 246.57 125.674 245.905C122.58 245.233 120.158 243.601 118.287 241.118C116.47 238.723 114.46 236.48 112.279 234.413C110.522 232.727 108.661 231.184 106.308 230.385C104.547 229.785 103.201 228.679 102.112 227.178C100.212 224.543 97.6527 222.456 94.6904 221.124C92.0416 219.913 89.3604 218.783 86.6846 217.64C83.3846 216.228 81.4501 213.773 81.1232 210.192C80.9321 208.099 80.9321 205.985 80.8824 203.881C80.8366 201.9 80.1761 200.179 78.7151 198.842C77.4936 197.724 76.2761 196.555 74.8945 195.668C65.5676 189.643 57.6747 182.081 50.7936 173.416C44.7626 165.816 39.7447 157.605 36.3613 148.502C32.5299 138.192 30.442 127.479 29.725 116.5C29.6106 114.769 29.3833 113.046 29.207 111.318V108.359C29.3765 106.946 29.5582 105.534 29.7115 104.122C30.1151 100.428 30.3277 96.7032 30.9223 93.0413C33.1264 79.325 38.243 66.24 45.9277 54.6668C56.2622 39.0292 69.6815 26.8785 86.5958 18.6762C99.9223 12.2188 113.967 8.65919 128.788 8.23273C129.407 8.21524 130.022 8.08072 130.638 8H137.368ZM178.033 58.5466V58.5224H183.952C184.848 58.5224 185.746 58.4942 186.642 58.5332C187.972 58.591 188.545 59.37 188.278 60.6857C188.235 60.9049 188.183 61.1229 188.126 61.3395C183.09 80.717 178.058 100.096 173.031 119.476C171.48 125.505 170.102 131.577 168.704 137.638C168.089 140.267 168.025 142.996 168.516 145.652C168.863 147.524 170.028 148.532 171.906 148.715C175.045 149.022 178.065 148.629 180.968 147.332C183.524 146.191 185.894 144.769 188.007 142.926C190.655 140.637 193.054 138.074 195.162 135.279C202.261 125.782 205.697 114.891 207.025 103.278C207.792 96.5673 207.398 89.8529 206.285 83.1803C204.419 71.974 199.828 61.9758 192.967 52.9933C189.663 48.6762 185.409 45.3426 181.138 42.0803C175.891 38.0794 169.972 35.2852 163.833 32.9659C156.4 30.161 148.694 28.6354 140.775 28.0933C131.827 27.4812 122.943 27.8686 114.138 29.6229C107.636 30.9197 101.539 33.4179 95.5487 36.161C90.7057 38.374 86.4209 41.4735 82.2734 44.7789C76.4473 49.4367 71.3711 54.9616 67.2223 61.1605C63.2079 67.1229 60.0841 73.5816 57.6478 80.3646C56.2339 84.3023 55.5317 88.4175 54.5106 92.452C54.1103 94.1069 53.8365 95.7897 53.6913 97.4861C53.3604 100.964 53.0496 104.447 52.8842 107.935C52.6143 114.212 53.0361 120.499 54.142 126.683C55.7227 135.703 58.8303 144.226 63.3075 152.227C64.0945 153.633 65.0389 154.952 65.8312 156.353C67.4477 159.255 69.4204 161.944 71.7034 164.357C74.5528 167.338 77.4761 170.252 80.2716 173.283C82.3966 175.592 84.6967 177.734 87.1514 179.689C90.1326 182.062 93.0855 184.47 96.0398 186.874C96.523 187.275 96.9821 187.704 97.4146 188.159C100.025 190.849 102.11 193.917 103.777 197.274C104.534 198.799 105.281 200.334 106.14 201.8C107.028 203.319 107.889 203.431 109.124 202.152C110.031 201.211 110.916 201.033 112.129 201.48C114.82 202.477 115.089 202.765 115.068 205.658C115.048 206.784 115.334 207.895 115.896 208.871C116.511 209.935 117.595 209.996 118.232 208.946C118.489 208.521 118.557 207.933 118.569 207.415C118.608 205.856 119.34 204.789 120.722 204.122C121.362 203.793 122.069 203.613 122.789 203.595C123.509 203.578 124.223 203.723 124.879 204.021C125.452 204.269 126.221 209.861 126.822 209.962C128.586 210.255 130.164 205.252 131.944 205.391C133.205 205.487 134.305 205.812 135.267 206.636C136.033 207.293 136.881 207.484 137.89 207.174C139.244 206.757 140.164 207.363 140.428 208.751C140.487 209.152 140.51 209.557 140.496 209.962C140.507 211.396 140.459 212.833 140.523 214.267C140.598 215.954 141.807 216.957 143.491 216.795C144.847 216.66 145.9 215.987 146.426 214.738C146.857 213.719 147.099 212.615 147.368 211.533C147.512 210.928 147.457 210.277 147.59 209.667C147.898 208.255 149.276 207.32 150.711 207.487C151.879 207.621 152.864 208.458 152.753 210.152C152.685 211.228 152.724 212.304 152.753 213.38C152.773 214.309 153.06 214.705 153.706 214.754C154.42 214.808 154.751 214.383 154.916 213.746C155.152 212.835 155.455 211.942 155.644 211.022C156.194 208.279 157.982 207.169 160.639 208.026C161.648 208.352 162.482 208.201 163.216 207.446C163.466 207.189 163.735 206.95 163.98 206.687C164.613 206.015 164.646 205.65 164.103 204.929C163.89 204.641 163.638 204.383 163.354 204.164C162.155 203.26 162.28 200.133 162.233 198.651C162.203 197.754 162.128 196.86 162.009 195.971C161.726 193.892 159.93 193.064 158.175 194.191C157.723 194.48 157.322 194.849 156.872 195.144C154.795 196.505 153.588 198.294 153.988 200.893C153.993 200.938 153.993 200.983 153.988 201.028C153.879 202.739 152.761 203.891 151.049 203.87C150.27 203.861 149.399 203.724 148.737 203.348C147.348 202.561 145.946 202.296 144.361 202.418C141.921 202.603 139.596 202.253 137.92 200.161C137.857 200.097 137.787 200.04 137.711 199.992C136.881 199.373 136.492 199.368 135.673 199.98C135.314 200.249 134.978 200.548 134.605 200.795C133.798 201.333 133.234 201.309 132.552 200.661C132.1 200.225 131.695 199.744 131.341 199.225C130.728 198.326 129.96 197.722 128.855 197.569C127.954 197.443 126.406 198.929 125.944 198.154C125.759 197.846 125.781 197.467 125.616 197.152C124.522 195.134 124.049 195.056 122.562 196.73C121.755 197.631 120.788 198.115 119.589 197.97C118.793 197.865 118.007 197.69 117.242 197.448C116.368 197.179 115.806 196.545 115.567 195.664C115.432 195.148 115.386 194.605 115.241 194.09C114.952 193.058 113.997 192.758 113.161 193.434C112.743 193.771 112.361 194.152 111.968 194.519C111.217 195.224 110.375 195.518 109.39 195.057C108.373 194.587 107.931 193.75 108.024 192.661C108.131 191.413 108.293 190.17 108.443 188.924C108.737 186.147 109.871 183.525 111.694 181.408C112.14 180.902 112.478 180.31 112.686 179.668C112.894 179.027 112.968 178.349 112.904 177.678C112.805 176.332 112.729 174.995 112.622 173.655C112.512 172.284 111.571 171.234 110.2 171.243C108.112 171.25 106.132 170.724 104.103 170.381C100.512 169.773 97.2505 168.349 93.9949 166.843C91.1766 165.545 88.6224 163.738 86.4613 161.511C85.0528 160.066 83.6066 158.659 82.1846 157.226C79.9272 154.952 77.9819 152.431 76.5478 149.565C73.4133 143.304 71.2756 136.769 70.8115 129.699C70.4577 124.3 70.5519 118.913 71.3294 113.601C72.3048 106.95 73.8855 100.404 76.9205 94.3139C77.062 94.0335 77.1825 93.743 77.281 93.4449C78.4124 89.9081 80.2407 86.7184 82.3165 83.6807C84.4124 80.6081 86.7021 77.6686 88.8425 74.6269C91.3487 71.0619 94.4402 68.0982 97.9703 65.5839C109.486 57.3776 122.177 53.3121 136.413 54.8121C144.258 55.6395 150.898 58.9664 156.399 64.5924C158.282 66.5188 160.082 68.5166 161.377 70.9085C161.674 71.4574 162.08 71.8502 162.755 71.7883C163.494 71.7265 163.832 71.2435 164.015 70.5776C164.168 70.0166 164.356 69.465 164.522 68.9067C165.32 66.2 166.084 63.4825 166.923 60.7892C167.477 59.0094 168.142 58.5588 169.95 58.5507C172.653 58.5372 175.342 58.5466 178.033 58.5466ZM96.4528 121.513C96.2106 124.751 96.5868 128.005 97.5613 131.102C99.9129 138.667 104.549 144.017 112.425 146.147C115.275 146.919 118.178 146.932 121.096 146.861C124.109 146.787 126.909 145.995 129.605 144.667C133.641 142.677 137.039 139.865 140.118 136.629C149.592 126.674 154.351 114.753 154.801 101.089C154.955 96.3668 153.554 92.0189 151.214 87.9049C148.489 83.1117 144.353 80.0888 139.433 77.9498C138.812 77.6948 138.163 77.5102 137.5 77.3996C134.066 76.7579 130.639 76.8615 127.22 77.5516C122.362 78.535 118.156 80.9 114.333 83.9363C108.423 88.6287 104.223 94.6502 101.054 101.447C98.1021 107.78 96.1447 114.335 96.4528 121.513ZM162.91 157.786H162.956C162.956 155.634 162.983 153.481 162.949 151.329C162.906 148.532 160.662 146.433 157.869 146.578C155.803 146.687 154.076 147.561 152.685 149.09C148.684 153.489 145.237 158.283 142.525 163.58C141.988 164.612 141.584 165.709 141.324 166.843C140.74 169.51 141.036 172.208 141.465 174.862C141.722 176.456 143.546 177.357 145.15 176.869C145.755 176.701 146.339 176.462 146.888 176.156C149.003 174.908 151.277 174.735 153.648 174.992C154.567 175.092 155.397 175.356 156.131 175.91C156.704 176.34 157.265 176.796 157.88 177.154C160.355 178.592 163.152 177.005 163.244 174.145C163.281 172.981 163.412 171.82 163.413 170.658C163.413 169.408 163.329 168.157 163.252 166.91C163.152 165.296 162.983 163.696 162.92 162.087C162.86 160.656 162.905 159.22 162.905 157.786H162.91Z" fill="white" stroke="black" stroke-width="3"/>
</svg>
